<svg width="616" height="222" xmlns="http://www.w3.org/2000/svg" xmlns:xlink="http://www.w3.org/1999/xlink" xml:space="preserve" overflow="hidden"><defs><clipPath id="clip0"><rect x="332" y="216" width="616" height="222"/></clipPath></defs><g clip-path="url(#clip0)" transform="translate(-332 -216)"><path d="M659.709 434.407C662.133 435.008 668.636 436.976 673.586 435.112 676.989 433.517 680.183 431.506 683.093 429.126 683.153 429.062 683.153 428.962 683.093 428.898 680.005 426.454 676.129 425.224 672.198 425.439 666.958 425.439 657.597 433.91 659.771 434.407" fill="#CCC6B8" transform="matrix(1 0 0 1.00033 -17.3895 -173.261)"/><path d="M625.121 403.505C628.6 405.577 632.328 405.887 632.515 405.038 632.701 404.189 631.251 392.611 623.402 389.132 623.402 389.132 621.62 401.351 625.121 403.505" fill="#CCC6B8" transform="matrix(1 0 0 1.00033 -17.3895 -173.261)"/><path d="M622.221 420.696C624.106 420.468 622.014 415.166 619.57 411.293 617.126 407.42 606.894 408.414 606.894 408.414 607.694 411.399 609.104 414.184 611.037 416.595 613.439 419.681 620.502 420.903 622.283 420.738" fill="#CCC6B8" transform="matrix(1 0 0 1.00033 -17.3895 -173.261)"/><path d="M599.625 395.2C597.926 396.339 602.006 400.73 606.045 403.692 610.084 406.654 620.026 401.621 620.026 401.621 618.215 398.767 615.668 396.455 612.652 394.931 608.489 393.048 603.699 393.156 599.625 395.221" fill="#CCC6B8" transform="matrix(1 0 0 1.00033 -17.3895 -173.261)"/><path d="M668.988 406.447C669.941 401.434 664.39 394.558 663.52 395.2 662.65 395.842 654.904 408.248 659.771 417.714 659.771 417.714 667.766 412.867 668.988 406.447" fill="#CCC6B8" transform="matrix(1 0 0 1.00033 -17.3895 -173.261)"/><path d="M647.862 417.983C646.744 416.761 640.737 419.93 637.403 422.353 633.613 425.108 634.379 432.17 634.379 432.17 634.379 432.17 641.276 433.04 644.258 428.774 646.754 425.748 648.038 421.902 647.862 417.983" fill="#CCC6B8" transform="matrix(1 0 0 1.00033 -17.3895 -173.261)"/><path d="M642.498 407.461C641.856 408.704 639.785 410.92 640.427 412.453 641.069 413.986 642.249 415 643.14 414.276 644.031 413.551 646.185 407.544 647.054 408.062 647.054 408.062 652.522 411.065 653.413 410.34 654.304 409.615 657.555 407.793 655.132 406.736 652.709 405.68 649.892 405.473 650.161 404.665 650.43 403.858 655.65 400.523 655.919 399.777 656.105 398.286 655.927 396.772 655.401 395.366 655.028 395.221 651.445 398.162 649.664 398.99 647.883 399.819 647.904 399.218 647.179 397.685 646.454 396.153 646.371 394.02 644.61 394.848 642.85 395.676 642.311 395.946 642.539 397.064 642.767 398.183 644.61 401.641 643.057 402.118 641.504 402.594 638.687 400.047 637.299 401.103 635.911 402.159 633.695 404.044 634.835 404.438 635.974 404.831 643.119 406.136 642.415 407.379" fill="#CCC6B8" transform="matrix(1 0 0 1.00033 -17.3895 -173.261)"/><path d="M716.086 403.505C713.021 404.085 704.55 405.183 699.828 409.864 696.746 413.443 694.118 417.386 691.999 421.607 691.945 421.709 691.982 421.833 692.084 421.887 692.09 421.891 692.096 421.895 692.102 421.897 696.901 423.111 701.98 422.521 706.373 420.241 712.358 417.507 718.8 403.008 716.086 403.505" fill="#CCC6B8" transform="matrix(1 0 0 1.00033 -17.3895 -173.261)"/><path d="M712.027 440.476C714.098 439.999 711.799 434.034 708.941 429.499 706.083 424.963 694.174 426.143 694.174 426.143 694.865 429.695 696.504 432.995 698.917 435.691 702.336 439.192 707.158 440.952 712.027 440.476" fill="#CCC6B8" transform="matrix(1 0 0 1.00033 -17.3895 -173.261)"/><path d="M687.732 393.667C685.537 391.596 680.814 398.907 678.039 405.556 675.264 412.204 685.785 424.404 685.785 424.404 689.147 420.887 691.5 416.529 692.599 411.79 693.813 405.324 692.022 398.657 687.732 393.667" fill="#CCC6B8" transform="matrix(1 0 0 1.00033 -17.3895 -173.261)"/><path d="M598.423 430.679C596.684 430.389 596.704 435.526 597.512 439.751 598.32 443.976 607.516 446.586 607.516 446.586 608.046 443.736 607.795 440.793 606.791 438.073 605.297 434.476 602.249 431.756 598.506 430.679" fill="#CCC6B8" transform="matrix(1 0 0 1.00033 -17.3895 -173.261)"/><path d="M687.629 427.117C684.584 434.18 677.004 438.591 669.796 441.304 662.588 444.018 654.324 444.535 646.889 447.29 645.646 447.746 643.637 448.885 642.477 449.361 642.301 448.945 642.156 448.514 642.042 448.077 641.193 444.229 642.293 440.209 644.983 437.328 649.126 432.75 655.339 431.363 660.538 428.318 663.731 426.429 666.486 423.88 668.615 420.841 669.34 419.785 667.207 416.285 666.213 416.823 665.256 417.449 664.421 418.24 663.748 419.164 658.467 425.087 650.078 427.179 644.01 432.191 640.696 434.946 636.512 438.612 636.077 443.148 635.901 444.892 636.048 446.654 636.512 448.346 637.009 450.065 637.713 452.737 635.725 453.938 634.88 452.661 634.232 451.265 633.799 449.796 632.467 447.242 631.425 444.546 630.692 441.76 630.16 438.63 630.104 435.441 630.526 432.295 631.024 426.703 631.914 421.048 630.526 415.518 629.387 411.189 626.881 404.624 621.745 404.686 620.253 404.686 618.721 407.606 620.005 408.373 621.979 409.344 623.567 410.947 624.52 412.929 625.51 414.969 626.08 417.188 626.198 419.453 626.173 424.594 625.806 429.729 625.1 434.822 624.777 440.101 625.736 445.38 627.896 450.21 629.118 453.11 631.086 456.797 630.671 460.007 630.406 461.364 629.915 462.664 629.222 463.859 625.91 470.856 622.182 477.647 618.058 484.198 616.567 486.414 615.055 488.631 613.584 490.867 613.584 490.66 613.584 490.474 613.584 490.288 613.414 488.216 612.998 486.172 612.342 484.198 611.617 482.127 610.436 480.222 609.732 478.109 608.655 474.837 610.395 470.736 611.451 467.753 612.776 464.004 614.247 460.276 615.241 456.341 617.281 448.218 616.552 439.647 613.17 431.984 609.463 423.389 605.817 414.835 601.861 404.852 600.971 402.636 596.808 405.162 597.968 407.213 602.566 415.498 604.513 423.409 607.806 431.176 611.099 438.943 613.211 446.337 610.146 453.959 607.288 461.167 602.959 468.312 602.752 476.473 602.648 480.822 604.823 484.074 605.693 488.092 606.232 491.559 605.962 495.103 604.906 498.448 603.477 503.978 600.888 509.197 599.355 514.727 598.382 518.269 595.337 528.169 600.929 529.619 602.017 529.795 603.131 529.754 604.202 529.495 605.206 529.341 606.136 528.869 606.853 528.148 609.711 524.586 609.276 519.864 610.001 515.597 610.811 511.225 612.358 507.023 614.578 503.17 618.845 495.403 624.727 488.672 628.911 480.822 630.982 476.783 632.763 472.538 634.71 468.395 636.189 464.916 638.202 461.687 640.675 458.826 643.2 456.211 646.298 454.218 649.726 453.006 657.058 450.231 664.929 449.195 672.095 445.84 680.131 442.091 687.504 436.499 690.735 428.297 691.398 426.578 688.436 425.336 687.691 427.055" fill="#CCC6B8" transform="matrix(1 0 0 1.00033 -17.3895 -173.261)"/><path d="M712.483 457.584C709.701 456.014 706.598 455.094 703.411 454.891 703.411 454.891 702.562 451.474 705.089 450.521 706.714 449.931 708.496 449.931 710.122 450.521 710.122 450.521 708.775 444.163 698.73 444.825 688.685 445.488 689.658 454.56 688.996 458.246 688.519 460.898 686.634 472.33 685.972 482.396 685.309 492.462 684.625 502.383 684.625 503.398 684.625 504.413 685.309 505.076 686.303 503.398 688.333 499.024 690.122 494.544 691.667 489.977 692.682 486.953 696.369 480.719 697.052 482.396 697.736 484.074 695.706 494.471 694.691 500.85 694.103 504.516 693.77 508.22 693.697 511.931 693.697 511.931 698.047 508.907 700.408 511.248 702.769 513.588 704.426 512.594 704.757 512.263 705.089 511.931 704.757 484.074 705.089 483.08 705.42 482.086 706.766 483.411 707.16 485.151 707.553 486.891 713.187 508.907 715.196 511.579L716.314 513.07C716.49 513.311 716.826 513.362 717.066 513.188 717.203 513.087 717.286 512.93 717.288 512.76 717.453 508.866 717.888 496.77 717.888 486.829 717.888 474.402 717.474 460.276 712.524 457.646" fill="#CCC6B8" transform="matrix(1 0 0 1.00033 -17.3895 -173.261)"/><path d="M668.098 453.897C663.988 453.29 659.84 454.719 656.975 457.729 654.461 460.034 652.216 462.619 650.285 465.433 649.933 465.91 649.602 466.386 649.519 466.448L649.271 466.614C648.069 467.463 645.605 469.182 645.646 471.088 645.646 472.31 647.282 472.973 649.353 473.822 651.021 474.315 652.539 475.22 653.765 476.452 654.49 477.55 653.082 481.278 652.025 484.033 650.845 487.181 650.555 488.175 650.948 489.148 651.031 489.407 651.219 489.616 651.466 489.728L651.652 489.728C653.164 490.039 654.076 486.849 655.484 481.568 655.65 480.988 656.934 480.843 657.369 481.775 657.182 482.831 656.934 484.053 656.665 485.275 655.712 489.894 655.36 491.862 655.774 492.545 655.865 492.705 656.014 492.823 656.188 492.876 656.602 492.876 657.1 493.063 659.647 485.337 659.979 484.323 660.31 483.266 660.6 482.355 661.946 481.92 662.671 482.21 663.044 483.163 661.822 487.616 660.973 495.279 662.174 496.17 663.375 497.06 664.784 489.459 665.094 484.385 666.368 484.509 667.505 485.232 668.16 486.332 668.379 486.963 668.479 487.63 668.45 488.299 668.226 490.93 667.739 493.531 667 496.066 666.834 496.729 666.689 497.371 666.523 498.013 666.358 498.655 666.151 499.09 666.523 499.483 666.689 499.585 666.896 499.585 667.062 499.483 668.139 498.926 668.988 498.011 669.464 496.895 670.908 493.947 671.792 490.76 672.074 487.491 674.162 486.767 675.904 485.29 676.962 483.349 677.59 481.868 677.254 480.153 676.113 479.02 675.284 478.026 674.829 477.633 674.415 477.571 674.245 477.533 674.067 477.579 673.938 477.695 673.628 477.964 673.628 478.482 673.628 479.248 673.628 480.967 673.855 481.713 672.219 482.044 672.219 481.837 672.116 481.63 672.074 481.444 670.459 475.044 662.733 473.842 658.674 473.159L656.602 472.91 656.561 472.91C656.13 472.869 655.743 472.622 655.526 472.248 655.312 471.817 655.198 471.342 655.194 470.86 655.134 469.151 655.849 467.507 657.141 466.386 659.27 464.323 662.211 463.321 665.156 463.652 671.639 464.439 676.279 472.765 676.651 475.499 677.024 478.233 678.35 471.626 677.024 468.105 674.839 463.675 670.637 460.585 665.757 459.821 659.771 459.178 654.987 465.475 654.883 465.62 654.386 466.262 654.324 466.635 653.786 466.2 653.616 465.982 653.502 465.725 653.454 465.454 659.109 459.116 663.5 456.797 667.745 457.169 671.991 457.542 674.974 461.685 676.838 464.439 677.832 465.889 679.137 467.753 679.385 467.194 681.27 463.052 676.465 454.767 668.201 453.669" fill="#CCC6B8" transform="matrix(1 0 0 1.00033 -17.3895 -173.261)"/><path d="M656.25 518.683 655.919 518.683C655.463 518.559 654.999 518.462 654.531 518.393 652.5 518.062 650.418 518.19 648.442 518.766 647.539 519.031 646.659 519.369 645.812 519.781 645.244 520.05 644.691 520.346 644.155 520.672 643.741 520.899 643.347 521.169 642.953 521.417 642.56 521.666 641.98 522.101 641.524 522.453 640.953 522.892 640.845 523.71 641.282 524.282 641.352 524.373 641.433 524.454 641.524 524.524L643.036 525.912 644.238 526.968C644.762 527.451 645.315 527.9 645.895 528.314L646.454 528.666 646.454 528.666C646.775 528.223 647.332 528.02 647.862 528.148 648.104 528.19 648.33 528.306 648.504 528.48 648.705 528.66 648.842 528.9 648.898 529.163 648.991 529.638 648.844 530.126 648.504 530.468 647.723 531.052 646.653 531.052 645.874 530.468 645.29 530.131 644.735 529.743 644.217 529.308L643.016 528.273 639.722 525.207 639.722 525.207C639.366 524.901 638.836 524.901 638.48 525.207L638.48 525.207 635.042 528.148C634.627 528.521 634.234 528.873 633.84 529.184 633.323 529.619 632.767 530.006 632.183 530.344 631.405 530.928 630.332 530.928 629.553 530.344 629.213 530.002 629.066 529.513 629.159 529.039 629.224 528.778 629.36 528.542 629.553 528.356 629.727 528.182 629.953 528.066 630.195 528.024 630.725 527.896 631.282 528.099 631.604 528.542L631.604 528.542 632.163 528.19C632.743 527.776 633.296 527.326 633.82 526.844L635.021 525.787 636.533 524.4C637.104 523.961 637.212 523.142 636.775 522.571 636.705 522.48 636.624 522.399 636.533 522.328 636.077 521.976 635.601 521.624 635.104 521.293 634.607 520.962 634.317 520.775 633.902 520.547 633.366 520.222 632.813 519.926 632.246 519.657 631.398 519.245 630.518 518.907 629.615 518.642 627.639 518.066 625.558 517.938 623.526 518.269 623.064 518.335 622.608 518.433 622.159 518.559L621.828 518.559C621.828 518.559 621.683 518.559 621.828 518.435 621.89 518.368 621.968 518.319 622.055 518.29 622.499 518.093 622.956 517.927 623.422 517.793 625.388 517.165 627.476 517.016 629.512 517.358 630.406 517.501 631.287 517.722 632.142 518.02L632.411 518.02C632.888 518.192 633.352 518.399 633.799 518.642 634.192 518.849 634.607 519.056 635 519.305 635.394 519.553 636.367 520.174 637.071 520.672 637.26 520.821 637.533 520.79 637.682 520.601 637.736 520.533 637.769 520.448 637.776 520.361 638.316 516.33 638.405 512.252 638.045 508.203 638.045 507.996 637.32 507.789 636.968 508.452 636.744 509.953 636.703 511.476 636.844 512.987L636.844 512.987 636.844 512.987 636.844 512.987 636.844 512.987C635.323 511.144 634.942 508.611 635.849 506.401 635.849 506.401 635.601 506.236 635.373 506.401 635.296 506.465 635.234 506.542 635.187 506.629L635 506.878C634.354 508.332 634.023 509.906 634.027 511.496L634.027 511.496C633.132 509.763 633.132 507.7 634.027 505.966 634.346 505.366 634.752 504.815 635.228 504.33L635.228 504.33C635.228 504.33 635.062 503.978 634.565 504.33 633.074 505.407 632.123 507.076 631.956 508.907 631.956 508.907 631.956 508.907 631.956 508.907 631.502 507.528 631.659 506.02 632.391 504.765 632.807 504.108 633.374 503.562 634.047 503.17 634.422 502.938 634.826 502.758 635.249 502.632L635.518 502.632C635.379 502.551 635.222 502.509 635.062 502.507 634.725 502.476 634.385 502.476 634.047 502.507 633.459 502.621 632.896 502.847 632.391 503.17 631.966 503.444 631.61 503.812 631.355 504.247L631.355 504.247C631.355 504.247 631.355 504.247 631.355 504.247 631.467 503.439 631.873 502.702 632.494 502.176 632.975 501.766 633.54 501.47 634.151 501.306 634.542 501.194 634.946 501.13 635.352 501.12 635.744 501.12 636.135 501.176 636.512 501.285L636.512 501.285C635.688 500.418 634.468 500.049 633.302 500.312 633.302 500.312 633.302 500.312 633.302 500.312L633.302 500.312C633.538 500.07 633.809 499.867 634.11 499.711 634.476 499.494 634.886 499.361 635.311 499.318 636.16 499.216 637.009 499.498 637.631 500.084L637.631 500.188C638.148 500.581 638.5 499.918 638.5 499.918 638.79 499.256 639 498.56 639.122 497.847 639.122 497.847 639.122 497.847 639.122 497.847 639.122 497.847 639.122 497.847 639.122 497.847 639.244 498.56 639.453 499.256 639.743 499.918 639.743 499.918 640.095 500.581 640.613 500.188L640.737 500.084C641.348 499.492 642.193 499.21 643.036 499.318 643.461 499.357 643.871 499.492 644.238 499.711 644.538 499.867 644.809 500.07 645.045 500.312L645.045 500.312C645.045 500.312 645.045 500.312 645.045 500.312 643.885 500.051 642.674 500.422 641.856 501.285L641.856 501.285C642.233 501.176 642.622 501.12 643.016 501.12 643.422 501.13 643.825 501.194 644.217 501.306 644.828 501.47 645.393 501.766 645.874 502.176 646.495 502.702 646.901 503.439 647.013 504.247 647.013 504.247 647.013 504.247 647.013 504.247L647.013 504.247C646.758 503.812 646.402 503.444 645.977 503.17 645.472 502.847 644.909 502.621 644.32 502.507 643.983 502.476 643.643 502.476 643.306 502.507 643.152 502.505 643.001 502.549 642.871 502.632L642.871 502.632 643.119 502.632C643.542 502.758 643.946 502.938 644.32 503.17 644.994 503.562 645.561 504.108 645.977 504.765 646.709 506.02 646.866 507.528 646.412 508.907 646.412 508.907 646.412 508.907 646.412 508.907 646.242 507.083 645.3 505.415 643.823 504.33 643.306 504.019 643.181 504.33 643.14 504.33L643.14 504.33C643.616 504.815 644.022 505.366 644.341 505.966 645.226 507.704 645.226 509.759 644.341 511.496L644.341 511.496C644.356 509.904 644.024 508.327 643.368 506.878 643.31 506.791 643.248 506.708 643.181 506.629 643.14 506.538 643.076 506.459 642.995 506.401 642.869 506.271 642.657 506.267 642.527 506.393 642.523 506.395 642.521 506.399 642.519 506.401 643.426 508.611 643.045 511.144 641.524 512.987L641.524 512.987C641.524 512.987 641.524 512.987 641.524 512.987L641.524 512.987 641.524 512.987C641.676 511.476 641.634 509.951 641.4 508.452 641.069 507.789 640.323 507.996 640.323 508.203 639.963 512.252 640.052 516.33 640.592 520.361 640.609 520.601 640.816 520.781 641.056 520.765 641.143 520.759 641.228 520.725 641.297 520.672 641.974 520.174 642.664 519.719 643.368 519.305L644.569 518.642C645.016 518.399 645.48 518.192 645.957 518.02L646.226 518.02C647.081 517.722 647.962 517.501 648.856 517.358 650.743 517.086 652.667 517.235 654.49 517.793 655.016 517.954 655.528 518.155 656.023 518.393 656.11 518.422 656.188 518.472 656.25 518.538 656.25 518.538 656.25 518.663 656.25 518.663M713.995 534.01C713.746 532.974 705.565 527.548 702.727 526.181 697.798 523.82 693.117 521.831 688.043 519.698 683.673 517.855 677.066 503.129 672.468 503.004 670.107 502.88 664.307 511.041 663.5 511.579 662.298 512.345 661.263 510.896 660.31 509.901 653.724 503.087 645.522 494.865 638.459 486.953 637.32 485.238 635.006 484.768 633.292 485.907 632.877 486.182 632.521 486.539 632.246 486.953 630.174 489.583 622.407 509.984 620.688 512.863 617.519 518.248 612.963 526.222 609.545 531.504 608.427 533.223 613.087 533.782 615.138 534.383 619.094 535.563 624.044 534.673 627.896 534.652 640.012 534.88 652.046 534.776 664.1 534.652 671.059 534.652 677.956 534.321 684.936 534.3 688.54 534.3 692.144 534.3 695.768 534.528 698.399 534.673 714.409 536.495 713.912 534.176" fill="#CCC6B8" transform="matrix(1 0 0 1.00033 -17.3895 -173.261)"/><path d="M364.671 578.934 364.671 582.827C364.683 582.987 364.563 583.126 364.404 583.138 364.402 583.138 364.402 583.138 364.402 583.138 362.861 583.248 361.334 582.765 360.135 581.792 358.895 582.591 357.467 583.055 355.993 583.138 352.923 583.486 350.154 581.28 349.806 578.213 349.769 577.896 349.761 577.575 349.779 577.256 349.779 573.776 352.617 570.276 358.602 569.22L358.602 567.77 362.869 567.77 362.869 576.945C362.869 578.084 363.345 578.644 364.526 578.644 364.634 578.698 364.694 578.816 364.671 578.934ZM355.972 578.934C356.852 578.94 357.726 578.77 358.54 578.437 358.54 578.064 358.54 577.691 358.54 577.297L358.54 572.844C355.454 573.507 353.777 574.916 353.777 576.862 353.833 578.006 354.802 578.886 355.945 578.832 355.953 578.83 355.964 578.83 355.972 578.83ZM357.733 565.989 354.833 563.131 357.691 560.252 359.887 562.323 362.061 560.252 364.961 563.131 362.103 565.989 359.907 563.918Z" fill="#CCC6B8" transform="matrix(1 0 0 1.00033 -17.3895 -173.261)"/><path d="M375.524 578.934 375.524 582.827C375.536 582.987 375.414 583.126 375.255 583.138 375.248 583.138 375.24 583.138 375.234 583.138 373.322 583.051 371.529 582.192 370.263 580.756 368.809 582.477 366.601 583.368 364.36 583.138 364.197 583.128 364.07 582.991 364.07 582.827L364.07 578.934C364.07 578.774 364.201 578.644 364.36 578.644 365.477 578.793 366.593 578.362 367.322 577.504 368.041 575.968 368.314 574.259 368.109 572.575L372.003 572.575C372.042 574.249 371.91 575.92 371.609 577.567 372.695 578.252 373.95 578.625 375.234 578.644 375.383 578.631 375.512 578.743 375.524 578.89 375.526 578.905 375.526 578.919 375.524 578.934ZM371.382 584.671 374.302 587.57 371.444 590.449 369.373 588.378 367.301 590.449 364.526 587.57 367.405 584.671 369.476 586.742Z" fill="#CCC6B8" transform="matrix(1 0 0 1.00033 -17.3895 -173.261)"/><path d="M394.372 578.934 394.372 582.827C394.372 582.991 394.245 583.128 394.082 583.138 392.385 583.109 390.77 582.409 389.587 581.191 387.972 582.583 385.874 583.283 383.746 583.138L375.234 583.138C375.07 583.128 374.944 582.991 374.944 582.827L374.944 578.934C374.944 578.774 375.074 578.644 375.234 578.644L383.974 578.644C385.735 578.644 386.998 578.002 386.998 576.945 386.998 575.889 386.108 575.164 384.119 574.273L376.808 571.063 376.808 568.122 385.258 560.438 391.451 560.438 391.451 560.604 381.737 568.578 386.294 570.504C389.732 571.974 391.348 574.004 391.348 576.904 391.381 577.256 391.381 577.608 391.348 577.96 392.251 578.422 393.253 578.658 394.268 578.644 394.355 578.712 394.396 578.826 394.372 578.934Z" fill="#CCC6B8" transform="matrix(1 0 0 1.00033 -17.3895 -173.261)"/><path d="M403.63 582.827C403.642 582.987 403.522 583.126 403.363 583.138 403.36 583.138 403.36 583.138 403.36 583.138 401.443 583.293 399.545 582.649 398.12 581.357 397.068 582.531 395.554 583.182 393.978 583.138 393.819 583.128 393.698 582.989 393.709 582.829 393.709 582.827 393.709 582.827 393.709 582.827L393.709 578.934C393.696 578.784 393.808 578.656 393.957 578.644 393.964 578.644 393.972 578.644 393.978 578.644 394.906 578.679 395.823 578.434 396.608 577.939 396.608 577.712 396.608 577.504 396.608 577.277L396.608 562.426 400.875 562.426 400.875 576.075C400.875 577.857 401.517 578.644 403.278 578.644 403.437 578.644 403.568 578.774 403.568 578.934Z" fill="#CCC6B8" transform="matrix(1 0 0 1.00033 -17.3895 -173.261)"/><path d="M419.764 578.934 419.764 582.827C419.777 582.987 419.654 583.126 419.495 583.138 419.489 583.138 419.48 583.138 419.474 583.138 417.72 583.196 416.061 582.332 415.104 580.86L414.566 583.138C411.974 583.279 409.39 582.742 407.068 581.585 406.057 582.542 404.732 583.095 403.34 583.138 403.18 583.128 403.06 582.989 403.07 582.829 403.07 582.827 403.07 582.827 403.07 582.827L403.07 578.934C403.058 578.784 403.17 578.656 403.319 578.644 403.325 578.644 403.334 578.644 403.34 578.644 403.862 578.654 404.384 578.598 404.893 578.478 404.872 578.368 404.872 578.256 404.893 578.147 404.893 575.06 407.213 569.323 411.707 569.323 414.131 569.323 415.601 570.732 416.554 573.569L417.299 575.848C417.859 577.774 418.418 578.644 419.516 578.644 419.665 578.654 419.775 578.784 419.764 578.932 419.764 578.932 419.764 578.934 419.764 578.934ZM414.151 578.934C414.048 578.716 413.971 578.486 413.923 578.25L413.219 576.179C412.722 574.439 412.122 573.673 411.252 573.673 410.382 573.673 408.973 575.019 408.228 577.546 410.096 578.455 412.157 578.896 414.234 578.83Z" fill="#CCC6B8" transform="matrix(1 0 0 1.00033 -17.3895 -173.261)"/><path d="M426.185 562.426 426.185 577.277C426.185 580.984 423.927 583.138 419.495 583.138 419.331 583.128 419.205 582.991 419.205 582.827L419.205 578.934C419.193 578.784 419.304 578.656 419.453 578.644 419.46 578.644 419.468 578.644 419.474 578.644 421.255 578.644 421.877 577.857 421.877 576.075L421.877 562.426Z" fill="#CCC6B8" transform="matrix(1 0 0 1.00033 -17.3895 -173.261)"/><path d="M434.801 583.138 430.555 583.138 430.555 562.426 434.801 562.426Z" fill="#CCC6B8" transform="matrix(1 0 0 1.00033 -17.3895 -173.261)"/><path d="M453.586 578.934 453.586 582.827C453.599 582.987 453.477 583.126 453.317 583.138 453.311 583.138 453.303 583.138 453.296 583.138 452.292 583.19 451.318 582.788 450.645 582.04L450.645 582.517C450.645 587.198 447.87 589.269 442.713 589.269L442.713 585.644C444.784 585.644 446.544 584.65 446.544 582.268 446.397 578.35 446.031 574.443 445.447 570.566L449.713 570.566C449.983 572.637 450.252 574.708 450.417 576.78 450.645 578.229 452.012 578.54 453.296 578.54 453.441 578.511 453.584 578.604 453.613 578.749 453.628 578.811 453.617 578.878 453.586 578.934ZM447.373 568.578 444.473 565.699 447.352 562.82 450.272 565.699Z" fill="#CCC6B8" transform="matrix(1 0 0 1.00033 -17.3895 -173.261)"/><path d="M459.8 590.408 457.729 588.337 455.658 590.408 452.716 587.529 455.595 584.65 457.667 586.721 459.738 584.65 462.637 587.529ZM453.006 582.827 453.006 578.934C452.994 578.784 453.106 578.656 453.255 578.644 453.261 578.644 453.269 578.644 453.276 578.644L455.678 578.644C457.459 578.644 458.081 577.857 458.081 576.075 457.967 573.793 457.683 571.523 457.232 569.282L461.498 569.282C461.973 571.923 462.25 574.594 462.327 577.277 462.327 580.984 460.09 583.138 455.658 583.138L453.379 583.138C453.216 583.128 453.089 582.991 453.089 582.827Z" fill="#CCC6B8" transform="matrix(1 0 0 1.00033 -17.3895 -173.261)"/><path d="M474.402 578.934 474.402 582.827C474.402 582.991 474.275 583.128 474.112 583.138 473.105 583.2 472.127 582.794 471.461 582.04L471.461 582.517C471.461 587.198 468.685 589.269 463.507 589.269L463.507 585.644C465.578 585.644 467.339 584.65 467.339 582.268 467.2 578.35 466.84 574.443 466.262 570.566L470.404 570.566C470.694 572.637 470.943 574.708 471.129 576.78 471.357 578.229 472.724 578.54 474.008 578.54 474.149 578.463 474.325 578.515 474.402 578.656 474.449 578.741 474.449 578.847 474.402 578.934ZM468.188 568.578 465.268 565.699 468.147 562.82 471.067 565.699Z" fill="#CCC6B8" transform="matrix(1 0 0 1.00033 -17.3895 -173.261)"/><path d="M491.261 578.934 491.261 582.827C491.273 582.987 491.151 583.126 490.992 583.138 490.986 583.138 490.977 583.138 490.971 583.138 488.394 583.254 485.841 582.62 483.618 581.315 480.65 582.724 477.37 583.351 474.091 583.138 473.936 583.117 473.82 582.985 473.822 582.827L473.822 578.934C473.809 578.784 473.921 578.656 474.07 578.644 474.076 578.644 474.085 578.644 474.091 578.644 475.82 578.679 477.55 578.596 479.269 578.395 478.436 576.929 477.473 575.543 476.39 574.253 475.955 574.46 475.52 574.646 475.106 574.895L475.106 571.001C477.568 569.35 480.431 568.393 483.391 568.226 487.346 568.226 489.894 570.483 489.894 573.466 489.842 575.346 489.018 577.121 487.616 578.374 488.749 578.517 489.892 578.579 491.033 578.561 491.182 578.571 491.292 578.702 491.282 578.849 491.28 578.878 491.271 578.907 491.261 578.934ZM479.704 573.114C480.969 574.692 482.086 576.384 483.038 578.167 484.588 577.674 485.704 576.322 485.897 574.708 485.897 573.404 484.757 572.637 482.831 572.637 481.771 572.648 480.719 572.809 479.704 573.114Z" fill="#CCC6B8" transform="matrix(1 0 0 1.00033 -17.3895 -173.261)"/><path d="M497.764 562.426 497.764 577.277C497.764 580.984 495.507 583.138 491.075 583.138 490.911 583.128 490.785 582.991 490.785 582.827L490.785 578.934C490.772 578.784 490.884 578.656 491.033 578.644 491.039 578.644 491.048 578.644 491.054 578.644 492.835 578.644 493.456 577.857 493.456 576.075L493.456 562.426Z" fill="#CCC6B8" transform="matrix(1 0 0 1.00033 -17.3895 -173.261)"/><path d="M506.38 583.138 502.135 583.138 502.135 562.426 506.38 562.426Z" fill="#CCC6B8" transform="matrix(1 0 0 1.00033 -17.3895 -173.261)"/><path d="M522.991 578.934 522.991 582.827C523.004 582.987 522.884 583.126 522.724 583.138 522.722 583.138 522.722 583.138 522.722 583.138 521.183 583.146 519.698 582.56 518.58 581.502 517.053 582.558 515.237 583.115 513.381 583.097 511.734 583.101 510.102 582.786 508.576 582.165L508.576 577.857C510.245 578.41 511.995 578.689 513.754 578.685 514.719 578.689 515.684 578.598 516.633 578.416L516.633 578.209C515.726 575.301 515.034 572.333 514.562 569.323L518.87 569.323C519.141 571.633 519.59 573.917 520.216 576.158 520.692 577.815 521.645 578.685 522.929 578.685 522.991 578.751 523.014 578.847 522.991 578.934Z" fill="#CCC6B8" transform="matrix(1 0 0 1.00033 -17.3895 -173.261)"/><path d="M532.291 578.934 532.291 582.827C532.303 582.987 532.183 583.126 532.024 583.138 532.022 583.138 532.022 583.138 532.022 583.138 530.294 583.105 528.658 582.355 527.506 581.067 526.299 582.484 524.497 583.25 522.639 583.138 522.48 583.128 522.36 582.989 522.37 582.829 522.37 582.827 522.37 582.827 522.37 582.827L522.37 578.934C522.357 578.784 522.469 578.656 522.618 578.644 522.625 578.644 522.633 578.644 522.639 578.644 523.592 578.768 524.524 578.289 524.98 577.442 525.524 575.881 525.729 574.222 525.58 572.575L529.495 572.575C529.536 574.371 529.362 576.164 528.977 577.919 529.913 578.416 530.961 578.666 532.022 578.644 532.171 578.644 532.291 578.764 532.291 578.913 532.291 578.919 532.291 578.927 532.291 578.934ZM527.279 584.671 530.178 587.57 527.299 590.449 524.379 587.57Z" fill="#CCC6B8" transform="matrix(1 0 0 1.00033 -17.3895 -173.261)"/><path d="M547.183 577.442 546.25 581.937C541.572 582.803 536.82 583.204 532.063 583.138 531.899 583.128 531.773 582.991 531.773 582.827L531.773 578.934C531.773 578.774 531.904 578.644 532.063 578.644L534.921 578.644C533.77 577.579 533.128 576.071 533.161 574.501 533.262 571.14 536.071 568.497 539.432 568.601 539.544 568.603 539.656 568.609 539.768 568.619 541.499 568.698 543.204 569.085 544.801 569.758L544.801 573.714C543.374 573.277 541.899 573.02 540.41 572.948 538.442 572.948 537.117 573.88 537.117 575.35 537.117 576.821 539.188 578.395 541.549 578.312 543.351 578.043 545.111 577.857 547.183 577.442Z" fill="#CCC6B8" transform="matrix(1 0 0 1.00033 -17.3895 -173.261)"/><path d="M574.17 578.934 574.17 582.827C574.182 582.987 574.062 583.126 573.903 583.138 573.901 583.138 573.901 583.138 573.901 583.138 572.805 583.213 571.747 582.73 571.084 581.854 570.607 586.556 567.666 589.269 562.364 589.269 557.062 589.269 554.39 586.473 554.39 581.46 554.436 579.253 554.848 577.07 555.612 574.998L559.506 574.998C558.777 576.703 558.369 578.53 558.305 580.383 558 582.5 559.471 584.464 561.588 584.768 561.871 584.81 562.161 584.818 562.447 584.795 565.512 584.795 567.024 583.221 567.024 579.99 566.9 576.827 566.54 573.677 565.947 570.566L570.09 570.566C570.38 572.637 570.566 574.149 570.753 575.475L570.918 576.759C571.125 578.312 572.513 578.644 573.839 578.644 573.984 578.608 574.128 578.698 574.164 578.842 574.172 578.871 574.174 578.903 574.17 578.934ZM562.219 571.995 559.216 569.116 562.095 566.237 565.015 569.116Z" fill="#CCC6B8" transform="matrix(1 0 0 1.00033 -17.3895 -173.261)"/><path d="M580.528 577.277C580.528 580.984 578.271 583.138 573.859 583.138 573.7 583.138 573.569 583.01 573.569 582.848 573.569 582.842 573.569 582.834 573.569 582.827L573.569 578.934C573.569 578.774 573.7 578.644 573.859 578.644 575.64 578.644 576.282 577.857 576.282 576.075 576.169 573.793 575.885 571.523 575.433 569.282L579.679 569.282C580.16 571.923 580.446 574.594 580.528 577.277ZM580.052 587.633 577.173 590.511 574.253 587.633 577.132 584.733Z" fill="#CCC6B8" transform="matrix(1 0 0 1.00033 -17.3895 -173.261)"/><path d="M605.403 580.425C605.403 585.996 602.441 589.269 596.601 589.269 591.547 589.269 588.647 586.473 588.647 581.46 588.693 579.253 589.105 577.07 589.869 574.998L593.742 574.998C593.022 576.707 592.616 578.532 592.541 580.383 592.249 582.515 593.74 584.478 595.872 584.77 596.141 584.805 596.412 584.816 596.684 584.795 599.749 584.795 601.261 583.221 601.261 579.99 601.137 576.825 600.77 573.675 600.163 570.566L604.43 570.566C604.977 573.826 605.302 577.121 605.403 580.425ZM599.355 569.116 596.456 571.995 593.556 569.116 596.435 566.237Z" fill="#CCC6B8" transform="matrix(1 0 0 1.00033 -17.3895 -173.261)"/><path d="M613.066 576.075C613.066 577.857 613.709 578.644 615.469 578.644 615.629 578.644 615.759 578.774 615.759 578.934L615.759 582.827C615.771 582.987 615.651 583.126 615.492 583.138 615.49 583.138 615.49 583.138 615.49 583.138 611.057 583.138 608.8 581.067 608.8 577.277L608.8 562.426 613.066 562.426Z" fill="#CCC6B8" transform="matrix(1 0 0 1.00033 -17.3895 -173.261)"/><path d="M631.914 578.934 631.914 582.827C631.927 582.987 631.804 583.126 631.645 583.138 631.639 583.138 631.63 583.138 631.624 583.138 629.87 583.196 628.211 582.332 627.254 580.86L626.716 583.138C624.124 583.279 621.54 582.742 619.218 581.585 618.207 582.542 616.882 583.095 615.49 583.138 615.33 583.128 615.21 582.989 615.221 582.829 615.221 582.827 615.221 582.827 615.221 582.827L615.221 578.934C615.208 578.784 615.32 578.656 615.469 578.644 615.475 578.644 615.484 578.644 615.49 578.644 616.012 578.654 616.534 578.598 617.043 578.478 617.022 578.368 617.022 578.256 617.043 578.147 617.043 575.06 619.363 569.323 623.857 569.323 626.281 569.323 627.751 570.732 628.704 573.569L629.449 575.848C630.009 577.774 630.568 578.644 631.666 578.644 631.815 578.654 631.924 578.784 631.914 578.932 631.914 578.932 631.914 578.934 631.914 578.934ZM626.281 578.934C626.281 578.706 626.115 578.478 626.053 578.25L625.369 576.179C624.872 574.439 624.272 573.673 623.402 573.673 622.532 573.673 621.123 575.019 620.378 577.546 622.215 578.439 624.238 578.88 626.281 578.83Z" fill="#CCC6B8" transform="matrix(1 0 0 1.00033 -17.3895 -173.261)"/><path d="M641.193 582.827C641.193 582.991 641.067 583.128 640.903 583.138 638.991 583.295 637.1 582.651 635.684 581.357 634.627 582.523 633.115 583.173 631.541 583.138 631.378 583.128 631.251 582.991 631.251 582.827L631.251 578.934C631.251 578.774 631.382 578.644 631.541 578.644 632.469 578.677 633.385 578.432 634.172 577.939 634.151 577.72 634.151 577.496 634.172 577.277L634.172 562.426 638.418 562.426 638.418 576.075C638.418 577.857 639.039 578.644 640.82 578.644 640.969 578.644 641.089 578.764 641.089 578.913 641.089 578.919 641.089 578.927 641.089 578.934Z" fill="#CCC6B8" transform="matrix(1 0 0 1.00033 -17.3895 -173.261)"/><path d="M664.846 577.339C665.047 580.317 662.793 582.896 659.815 583.095 659.581 583.111 659.345 583.111 659.109 583.097 657.263 583.055 655.47 582.471 653.951 581.419 652.959 582.558 651.505 583.19 649.995 583.138 648.272 583.028 646.634 582.351 645.335 581.212 644.244 582.529 642.589 583.246 640.882 583.138 640.719 583.128 640.592 582.991 640.592 582.827L640.592 578.934C640.592 578.774 640.723 578.644 640.882 578.644 641.725 578.714 642.514 578.227 642.829 577.442 643.333 575.872 643.535 574.222 643.43 572.575L647.324 572.575C647.355 574.427 647.168 576.276 646.764 578.084 647.57 578.451 648.446 578.642 649.333 578.644 650.292 578.764 651.226 578.287 651.694 577.442 652.228 575.879 652.427 574.22 652.274 572.575L656.209 572.575C656.261 574.464 656.06 576.353 655.608 578.188 656.431 578.49 657.3 578.646 658.177 578.644 659.875 578.644 660.579 577.919 660.579 576.138 660.478 573.834 660.194 571.542 659.73 569.282L663.872 569.282C664.394 571.939 664.719 574.634 664.846 577.339Z" fill="#CCC6B8" transform="matrix(1 0 0 1.00033 -17.3895 -173.261)"/><path d="M697.798 582.827C697.798 582.991 697.672 583.128 697.508 583.138 695.429 583.362 693.364 582.595 691.937 581.067 689.654 582.506 686.991 583.227 684.294 583.138L680.297 583.138C675.409 583.138 672.944 580.715 672.944 576.2 672.969 574.802 673.157 573.412 673.503 572.057L677.273 572.057C677.03 573.012 676.892 573.992 676.859 574.978 676.859 577.484 677.894 578.644 681.229 578.644L684.025 578.644C686.313 578.766 688.604 578.42 690.756 577.629L690.756 577.277 690.756 562.426 695.023 562.426 695.023 576.075C695.023 577.857 695.644 578.644 697.425 578.644 697.585 578.644 697.715 578.774 697.715 578.934ZM683.486 573.507C682.457 573.503 681.436 573.671 680.462 574.004L680.462 571.208C680.976 571.018 681.502 570.858 682.036 570.732 681.628 570.322 681.409 569.758 681.436 569.178 681.442 567.509 682.801 566.159 684.47 566.165 684.549 566.165 684.63 566.169 684.708 566.175 685.468 566.219 686.21 566.422 686.883 566.776L686.883 569.344C686.255 569.1 685.589 568.965 684.915 568.951 684.211 568.951 683.714 569.282 683.714 569.8 683.714 570.318 684.356 570.628 685.433 570.628L688.022 570.628 687.152 573.507Z" fill="#CCC6B8" transform="matrix(1 0 0 1.00033 -17.3895 -173.261)"/><path d="M707.056 582.827C707.069 582.987 706.948 583.126 706.789 583.138 706.787 583.138 706.787 583.138 706.787 583.138 704.869 583.293 702.972 582.649 701.547 581.357 700.495 582.531 698.981 583.182 697.405 583.138 697.245 583.128 697.125 582.989 697.135 582.829 697.135 582.827 697.135 582.827 697.135 582.827L697.135 578.934C697.123 578.784 697.235 578.656 697.384 578.644 697.39 578.644 697.398 578.644 697.405 578.644 698.349 578.66 699.273 578.385 700.056 577.857 700.056 577.629 700.056 577.422 700.056 577.194L700.056 562.344 704.322 562.344 704.322 575.993C704.322 577.774 704.964 578.561 706.725 578.561 706.884 578.561 707.015 578.691 707.015 578.851Z" fill="#CCC6B8" transform="matrix(1 0 0 1.00033 -17.3895 -173.261)"/><path d="M723.191 578.934 723.191 582.827C723.203 582.987 723.081 583.126 722.921 583.138 722.915 583.138 722.907 583.138 722.901 583.138 721.146 583.196 719.487 582.332 718.531 580.86L717.992 583.138C715.401 583.279 712.816 582.742 710.494 581.585 709.484 582.542 708.158 583.095 706.766 583.138 706.603 583.128 706.476 582.991 706.476 582.827L706.476 578.934C706.476 578.774 706.607 578.644 706.766 578.644 707.288 578.654 707.81 578.598 708.32 578.478 708.299 578.368 708.299 578.256 708.32 578.147 708.32 575.06 710.639 569.323 715.134 569.323 717.557 569.323 719.028 570.732 719.98 573.569L720.767 575.785C721.327 577.712 721.886 578.581 722.984 578.581 723.131 578.608 723.228 578.747 723.201 578.894 723.199 578.907 723.195 578.921 723.191 578.934ZM717.578 578.934C717.474 578.716 717.398 578.486 717.35 578.25L716.646 576.179C716.149 574.439 715.548 573.673 714.678 573.673 713.808 573.673 712.4 575.019 711.654 577.546 713.498 578.443 715.529 578.882 717.578 578.83Z" fill="#CCC6B8" transform="matrix(1 0 0 1.00033 -17.3895 -173.261)"/><path d="M729.611 562.426 729.611 577.277C729.611 580.984 727.354 583.138 722.921 583.138 722.758 583.128 722.631 582.991 722.631 582.827L722.631 578.934C722.619 578.784 722.731 578.656 722.88 578.644 722.886 578.644 722.894 578.644 722.901 578.644 724.682 578.644 725.303 577.857 725.303 576.075L725.303 562.426Z" fill="#CCC6B8" transform="matrix(1 0 0 1.00033 -17.3895 -173.261)"/><path d="M738.227 583.138 733.981 583.138 733.981 562.426 738.227 562.426Z" fill="#CCC6B8" transform="matrix(1 0 0 1.00033 -17.3895 -173.261)"/><path d="M762.067 578.934 762.067 582.827C762.079 582.987 761.957 583.126 761.797 583.138 761.791 583.138 761.783 583.138 761.776 583.138 760.242 583.248 758.722 582.765 757.531 581.792 756.255 582.612 754.78 583.078 753.264 583.138 750.209 583.498 747.438 581.313 747.077 578.258 747.038 577.925 747.03 577.589 747.051 577.256 747.051 573.776 749.867 570.276 755.874 569.22L755.874 567.77 760.12 567.77 760.12 576.945C760.12 578.084 760.617 578.644 761.776 578.644 761.926 578.631 762.054 578.743 762.067 578.89 762.069 578.905 762.069 578.919 762.067 578.934ZM753.347 578.934C754.233 578.94 755.114 578.77 755.936 578.437 755.915 578.057 755.915 577.676 755.936 577.297L755.936 572.844C752.85 573.507 751.151 574.916 751.151 576.862 751.207 578.006 752.177 578.886 753.32 578.832 753.328 578.83 753.339 578.83 753.347 578.83ZM755.128 565.989 752.208 563.131 755.066 560.252 757.261 562.323 759.436 560.252 762.356 563.131 759.498 565.989 757.303 563.918Z" fill="#CCC6B8" transform="matrix(1 0 0 1.00033 -17.3895 -173.261)"/><path d="M772.919 578.934 772.919 582.827C772.919 582.991 772.793 583.128 772.63 583.138 770.716 583.059 768.918 582.198 767.659 580.756 766.194 582.473 763.98 583.364 761.735 583.138 761.576 583.128 761.456 582.989 761.466 582.829 761.466 582.827 761.466 582.827 761.466 582.827L761.466 578.934C761.453 578.784 761.565 578.656 761.714 578.644 761.721 578.644 761.729 578.644 761.735 578.644 762.858 578.791 763.98 578.364 764.718 577.504 765.428 575.966 765.693 574.257 765.484 572.575L769.398 572.575C769.438 574.249 769.305 575.92 769.005 577.567 770.09 578.252 771.345 578.625 772.63 578.644 772.789 578.644 772.919 578.774 772.919 578.934ZM768.777 584.671 771.697 587.57 768.839 590.449 766.768 588.378 764.697 590.449 761.756 587.57 764.655 584.671 766.727 586.742Z" fill="#CCC6B8" transform="matrix(1 0 0 1.00033 -17.3895 -173.261)"/><path d="M789.116 578.934 789.116 582.827C789.128 582.987 789.006 583.126 788.847 583.138 788.841 583.138 788.832 583.138 788.826 583.138 787.076 583.202 785.421 582.334 784.477 580.86L783.917 583.138C781.326 583.279 778.742 582.742 776.42 581.585 775.409 582.542 774.083 583.095 772.692 583.138 772.532 583.128 772.412 582.989 772.422 582.829 772.422 582.827 772.422 582.827 772.422 582.827L772.422 578.934C772.41 578.784 772.522 578.656 772.671 578.644 772.677 578.644 772.685 578.644 772.692 578.644 773.214 578.654 773.735 578.598 774.245 578.478 774.235 578.368 774.235 578.256 774.245 578.147 774.245 575.06 776.544 569.323 781.038 569.323 783.462 569.323 784.953 570.732 785.885 573.569L786.631 575.848C787.211 577.774 787.749 578.644 788.847 578.644 788.996 578.644 789.116 578.764 789.116 578.913 789.116 578.919 789.116 578.927 789.116 578.934ZM783.503 578.934C783.408 578.712 783.333 578.484 783.275 578.25L782.571 576.179C782.074 574.439 781.473 573.673 780.604 573.673 779.734 573.673 778.325 575.019 777.58 577.546 779.398 578.428 781.399 578.869 783.42 578.83Z" fill="#CCC6B8" transform="matrix(1 0 0 1.00033 -17.3895 -173.261)"/><path d="M807.052 578.934 807.052 582.827C807.052 582.991 806.926 583.128 806.762 583.138 804.167 583.443 801.814 581.591 801.502 578.996 797.359 580.466 796.199 583.138 788.764 583.138 788.592 583.138 788.453 582.999 788.453 582.827L788.453 578.934C788.464 578.77 788.6 578.644 788.764 578.644 792.79 578.722 796.775 577.805 800.362 575.972 797.235 574.688 796.034 573.176 793.548 573.176 792.465 573.209 791.398 573.441 790.4 573.859L790.4 570.007C791.516 569.253 792.823 568.837 794.17 568.806 798.188 568.806 800.259 572.575 805.458 573.797L804.256 578.105C805.02 578.526 805.892 578.714 806.762 578.644 806.922 578.644 807.052 578.774 807.052 578.934Z" fill="#CCC6B8" transform="matrix(1 0 0 1.00033 -17.3895 -173.261)"/><path d="M819.065 583.511C815.886 583.575 812.727 582.985 809.786 581.771 809.072 582.705 807.937 583.219 806.762 583.138 806.576 583.138 806.472 582.993 806.472 582.827L806.472 578.934C806.46 578.784 806.572 578.656 806.719 578.644 806.733 578.642 806.748 578.642 806.762 578.644 807.757 578.644 808.295 577.649 809.558 574.501 810.988 571.022 812.81 569.344 815.523 569.344 818.858 569.344 821.053 572.14 821.737 578.996ZM817.967 578.975C817.636 575.06 816.58 573.486 815.316 573.486 814.053 573.486 813.245 574.501 812.002 577.422L811.899 577.857C813.833 578.606 815.892 578.985 817.967 578.975Z" fill="#CCC6B8" transform="matrix(1 0 0 1.00033 -17.3895 -173.261)"/><path d="M839.321 578.934 839.321 582.827C839.334 582.987 839.211 583.126 839.052 583.138 839.046 583.138 839.037 583.138 839.031 583.138 838.027 583.19 837.053 582.788 836.38 582.04L836.38 582.517C836.38 587.198 833.605 589.269 828.448 589.269L828.448 585.644C830.519 585.644 832.279 584.65 832.279 582.268 832.132 578.35 831.766 574.443 831.181 570.566L835.448 570.566C835.738 572.637 835.987 574.708 836.152 576.78 836.38 578.229 837.747 578.54 839.031 578.54 839.176 578.511 839.319 578.604 839.348 578.749 839.363 578.811 839.352 578.878 839.321 578.934Z" fill="#CCC6B8" transform="matrix(1 0 0 1.00033 -17.3895 -173.261)"/><path d="M845.555 590.408 843.484 588.337 841.413 590.408 838.472 587.529 841.351 584.65 843.422 586.721 845.493 584.65 848.393 587.529ZM838.824 582.827 838.824 578.934C838.812 578.784 838.924 578.656 839.07 578.644 839.085 578.642 839.1 578.642 839.114 578.644L841.496 578.644C843.277 578.644 843.898 577.857 843.898 576.075 843.784 573.793 843.501 571.523 843.049 569.282L847.337 569.282C847.811 571.923 848.088 574.594 848.165 577.277 848.165 580.984 845.908 583.138 841.475 583.138L839.031 583.138C838.901 583.093 838.816 582.966 838.824 582.827Z" fill="#CCC6B8" transform="matrix(1 0 0 1.00033 -17.3895 -173.261)"/><path d="M865.501 578.934 865.501 582.827C865.513 582.987 865.391 583.126 865.232 583.138 865.225 583.138 865.217 583.138 865.211 583.138L863.678 583.138C863.14 586.928 859.991 589.352 852.763 589.352L852.763 585.727C856.326 585.727 858.707 584.961 859.411 583.221L857.589 583.221C853.923 583.581 850.659 580.903 850.298 577.237 850.265 576.891 850.257 576.546 850.278 576.2 850.06 572.385 852.976 569.116 856.789 568.899 856.897 568.893 857.005 568.89 857.112 568.888 860.841 568.888 863.326 571.457 863.595 575.868 863.595 576.697 863.595 577.629 863.699 578.727L865.211 578.727C865.345 578.712 865.47 578.801 865.501 578.934ZM858.024 578.934C858.645 578.934 859.142 578.934 859.598 578.934L859.411 576.282C859.267 574.211 858.335 573.3 856.823 573.3 855.348 573.331 854.178 574.553 854.209 576.028 854.209 576.065 854.211 576.1 854.213 576.138 854.213 577.857 855.621 578.83 858.024 578.83Z" fill="#CCC6B8" transform="matrix(1 0 0 1.00033 -17.3895 -173.261)"/><path d="M888.884 578.934 888.884 582.827C888.884 582.991 888.758 583.128 888.594 583.138 886.695 583.093 884.912 582.223 883.706 580.756 881.144 582.446 878.114 583.281 875.049 583.138L865.232 583.138C865.068 583.128 864.942 582.991 864.942 582.827L864.942 578.934C864.942 578.774 865.072 578.644 865.232 578.644L866.826 578.644 867.945 577.339 867.945 562.426 872.211 562.426 872.211 568.143C872.139 569.928 871.868 571.699 871.404 573.424 875.049 569.551 877.617 567.791 880.393 567.791 883.822 567.658 886.71 570.33 886.842 573.76 886.85 573.971 886.848 574.184 886.834 574.398 886.857 575.686 886.556 576.96 885.964 578.105 886.794 578.463 887.689 578.648 888.594 578.644 888.754 578.644 888.884 578.774 888.884 578.934ZM882.546 574.936C882.53 573.404 881.273 572.175 879.74 572.192 879.668 572.192 879.595 572.196 879.523 572.202 877.203 572.202 875.38 573.818 870.782 578.644L874.821 578.644C879.523 578.644 882.546 577.09 882.546 574.936Z" fill="#CCC6B8" transform="matrix(1 0 0 1.00033 -17.3895 -173.261)"/><path d="M896.817 569.282C897.291 571.923 897.569 574.594 897.645 577.277 897.645 580.984 895.388 583.138 890.955 583.138L888.532 583.138C888.373 583.138 888.242 583.01 888.242 582.848 888.242 582.842 888.242 582.834 888.242 582.827L888.242 578.934C888.242 578.774 888.373 578.644 888.532 578.644L890.935 578.644C892.695 578.644 893.317 577.857 893.317 576.075 893.203 573.793 892.919 571.523 892.467 569.282ZM892.157 567.376 889.257 564.518 892.095 561.639 894.311 563.711 896.382 561.639 899.302 564.518 896.444 567.376 894.249 565.305Z" fill="#CCC6B8" transform="matrix(1 0 0 1.00033 -17.3895 -173.261)"/><path d="M921.671 578.934 921.671 582.827C921.683 582.987 921.561 583.126 921.402 583.138 921.395 583.138 921.387 583.138 921.381 583.138 919.881 583.221 918.403 582.74 917.239 581.792 915.967 582.61 914.503 583.074 912.993 583.138 909.923 583.486 907.154 581.28 906.806 578.213 906.769 577.896 906.761 577.575 906.779 577.256 906.779 573.776 909.596 570.276 915.602 569.22L915.602 567.77 919.848 567.77 919.848 576.945C919.848 578.084 920.345 578.644 921.505 578.644 921.621 578.689 921.69 578.809 921.671 578.934ZM912.972 578.934C913.852 578.938 914.724 578.768 915.54 578.437 915.52 578.057 915.52 577.676 915.54 577.297L915.54 572.844C912.454 573.507 910.777 574.916 910.777 576.862 910.828 578.006 911.796 578.89 912.939 578.838 912.978 578.836 913.016 578.834 913.055 578.83ZM914.732 565.989 911.812 563.131 914.67 560.252 916.866 562.323 918.937 560.252 921.857 563.131 918.999 565.989 916.804 563.918Z" fill="#CCC6B8" transform="matrix(1 0 0 1.00033 -17.3895 -173.261)"/><path d="M932.607 578.934 932.607 582.827C932.607 582.991 932.48 583.128 932.317 583.138 930.403 583.059 928.605 582.198 927.346 580.756 925.886 582.467 923.682 583.358 921.443 583.138 921.284 583.138 921.153 583.01 921.153 582.848 921.153 582.842 921.153 582.834 921.153 582.827L921.153 578.934C921.141 578.784 921.253 578.656 921.4 578.644 921.414 578.642 921.429 578.642 921.443 578.644 922.559 578.789 923.674 578.36 924.405 577.504 925.115 575.966 925.38 574.257 925.171 572.575L929.086 572.575C929.125 574.249 928.992 575.92 928.692 577.567 929.777 578.252 931.033 578.625 932.317 578.644 932.476 578.644 932.607 578.774 932.607 578.934ZM926.662 570.649C925.633 570.643 924.612 570.81 923.639 571.146L923.639 568.329C924.322 568.101 924.778 567.977 925.213 567.874 924.805 567.463 924.585 566.9 924.612 566.32 924.618 564.651 925.977 563.3 927.646 563.307 927.725 563.307 927.806 563.311 927.884 563.317 928.645 563.35 929.39 563.555 930.059 563.918L930.059 566.486C929.432 566.241 928.765 566.109 928.092 566.092 927.367 566.092 926.89 566.424 926.89 566.942 926.89 567.459 927.512 567.77 928.609 567.77L931.198 567.77 930.308 570.649Z" fill="#CCC6B8" transform="matrix(1 0 0 1.00033 -17.3895 -173.261)"/><path d="M943.48 578.934 943.48 582.827C943.48 582.991 943.354 583.128 943.19 583.138 941.279 583.055 939.483 582.194 938.22 580.756 936.766 582.477 934.558 583.368 932.317 583.138 932.157 583.138 932.027 583.01 932.027 582.848 932.027 582.842 932.027 582.834 932.027 582.827L932.027 578.934C932.014 578.784 932.126 578.656 932.273 578.644 932.288 578.642 932.302 578.642 932.317 578.644 933.433 578.789 934.547 578.36 935.279 577.504 935.989 575.966 936.254 574.257 936.045 572.575L939.959 572.575C939.999 574.249 939.866 575.92 939.566 577.567 940.651 578.252 941.906 578.625 943.19 578.644 943.35 578.644 943.48 578.774 943.48 578.934ZM939.338 584.671 942.238 587.57 939.379 590.449 937.308 588.378 935.237 590.449 932.296 587.57 935.175 584.671 937.246 586.742Z" fill="#CCC6B8" transform="matrix(1 0 0 1.00033 -17.3895 -173.261)"/><path d="M964.151 574.273C964.078 576.117 963.728 577.939 963.115 579.679L959.221 583.511C956.545 583.486 953.907 582.871 951.496 581.709 948.847 582.691 946.036 583.175 943.211 583.138 943.025 583.138 942.921 582.993 942.921 582.827L942.921 578.934C942.909 578.784 943.021 578.656 943.168 578.644 943.182 578.642 943.197 578.642 943.211 578.644 944.048 578.654 944.885 578.619 945.717 578.54 944.874 577.488 944.414 576.181 944.412 574.833 944.412 571.264 947.306 568.371 950.874 568.371 954.443 568.371 957.336 571.264 957.336 574.833 957.289 576.258 956.73 577.616 955.762 578.664 956.866 578.894 957.991 579.006 959.118 578.996 959.696 577.544 960.012 576.001 960.05 574.439 960.05 570.67 956.964 566.983 950.005 566.983L950.005 562.986C959.201 563.006 964.151 567.024 964.151 574.273ZM948.12 575.33C948.151 576.821 949.164 578.111 950.605 578.499 952.072 578.165 953.124 576.875 953.153 575.371 953.221 573.977 952.148 572.793 950.754 572.722 950.705 572.72 950.655 572.72 950.605 572.72 949.244 572.706 948.13 573.799 948.116 575.16 948.116 575.216 948.116 575.274 948.12 575.33Z" fill="#CCC6B8" transform="matrix(1 0 0 1.00033 -17.3895 -173.261)"/><path d="M353.217 604.16 358.312 598.568 361.15 598.568 356.614 603.539 361.481 610.871 358.623 610.871 354.978 605.32 353.3 607.184 353.3 610.871 350.856 610.871 350.856 598.568 353.3 598.568Z" fill="#CCC6B8" transform="matrix(1 0 0 1.00033 -17.3895 -173.261)"/><path d="M364.775 610.83 362.331 610.83 362.331 598.568 364.775 598.568Z" fill="#CCC6B8" transform="matrix(1 0 0 1.00033 -17.3895 -173.261)"/><path d="M374.178 610.83 369.269 601.447 369.269 610.83 366.97 610.83 366.97 598.568 370.139 598.568 375.048 607.951 375.048 598.568 377.347 598.568 377.347 610.871Z" fill="#CCC6B8" transform="matrix(1 0 0 1.00033 -17.3895 -173.261)"/><path d="M388.676 599.417C389.593 600.115 390.211 601.139 390.395 602.276L388.096 602.276C387.924 601.656 387.535 601.12 386.998 600.764 386.443 600.41 385.793 600.229 385.134 600.246 384.159 600.209 383.22 600.621 382.587 601.364 381.899 602.305 381.563 603.454 381.634 604.616 381.557 605.801 381.887 606.977 382.566 607.951 383.177 608.727 384.125 609.16 385.113 609.111 385.853 609.108 386.574 608.885 387.185 608.469 387.852 608.002 388.21 607.207 388.117 606.397L388.117 606.211 385.051 606.211 385.051 604.14 390.354 604.14 390.354 610.664 388.448 610.664 388.448 609.235C387.586 610.397 386.18 611.024 384.741 610.892 383.167 610.973 381.642 610.333 380.598 609.152 379.532 607.824 378.993 606.151 379.086 604.45 379.006 602.767 379.585 601.116 380.702 599.852 381.864 598.682 383.469 598.065 385.113 598.154 386.414 598.137 387.676 598.587 388.676 599.417Z" fill="#CCC6B8" transform="matrix(1 0 0 1.00033 -17.3895 -173.261)"/><path d="M399.736 605.445C397.292 604.927 396.07 603.746 396.07 601.882 396.035 601.116 396.312 600.37 396.836 599.811 397.337 599.258 397.971 598.844 398.68 598.61 399.415 598.367 400.183 598.249 400.958 598.258 402.163 598.227 403.344 598.597 404.313 599.314 405.218 599.964 405.769 600.998 405.804 602.11L403.464 602.11C403.4 601.518 403.083 600.981 402.594 600.639 402.076 600.327 401.48 600.169 400.875 600.184 400.293 600.167 399.717 600.296 399.197 600.557 398.754 600.77 398.477 601.224 398.493 601.716 398.493 602.524 399.052 603.021 400.212 603.228L401.807 603.518C402.325 603.622 402.836 603.755 403.34 603.912 403.802 604.067 404.241 604.283 404.645 604.554 405.077 604.811 405.43 605.184 405.659 605.631 405.918 606.122 406.047 606.671 406.032 607.226 406.063 608.35 405.496 609.407 404.541 610.001 403.499 610.674 402.281 611.02 401.041 610.995 399.717 611.051 398.415 610.649 397.354 609.856 396.416 609.073 395.85 607.93 395.801 606.708L398.141 606.708C398.274 608.143 399.545 609.2 400.981 609.065 401.028 609.061 401.076 609.055 401.124 609.048 401.72 609.061 402.31 608.926 402.843 608.655 403.329 608.408 403.624 607.895 403.588 607.35 403.609 606.894 403.377 606.466 402.988 606.232 402.47 605.94 401.9 605.749 401.31 605.672Z" fill="#CCC6B8" transform="matrix(1 0 0 1.00033 -17.3895 -173.261)"/><path d="M410.755 598.568 413.199 598.568 417.776 610.871 415.166 610.871 414.296 608.386 409.512 608.386 408.642 610.871 406.157 610.871ZM410.195 606.397 413.592 606.397 411.894 601.551Z" fill="#CCC6B8" transform="matrix(1 0 0 1.00033 -17.3895 -173.261)"/><path d="M421.318 608.924 427.303 608.924 427.303 610.892 418.894 610.892 418.894 598.568 421.318 598.568Z" fill="#CCC6B8" transform="matrix(1 0 0 1.00033 -17.3895 -173.261)"/><path d="M433.703 610.83 430.679 601.592 430.679 610.83 428.422 610.83 428.422 598.568 431.943 598.568 434.925 608.158 437.825 598.568 441.387 598.568 441.387 610.871 439.088 610.871 439.088 601.634 436.085 610.871Z" fill="#CCC6B8" transform="matrix(1 0 0 1.00033 -17.3895 -173.261)"/><path d="M446.917 598.568 449.444 598.568 454.042 610.871 451.412 610.871 450.542 608.386 445.757 608.386 444.887 610.871 442.423 610.871ZM446.379 606.397 449.755 606.397 448.077 601.551Z" fill="#CCC6B8" transform="matrix(1 0 0 1.00033 -17.3895 -173.261)"/><path d="M462.285 610.83 457.356 601.447 457.356 610.83 455.057 610.83 455.057 598.568 458.226 598.568 463.134 607.951 463.134 598.568 465.433 598.568 465.433 610.871Z" fill="#CCC6B8" transform="matrix(1 0 0 1.00033 -17.3895 -173.261)"/><path d="M471.481 598.568 476.369 598.568C476.798 598.546 477.225 598.546 477.653 598.568 478.072 598.63 478.482 598.742 478.875 598.9 479.248 599.026 479.592 599.223 479.89 599.48 480.188 599.724 480.425 600.037 480.574 600.391 480.76 600.801 480.851 601.246 480.843 601.696 480.841 602.236 480.69 602.767 480.408 603.228 480.18 603.651 479.853 604.013 479.455 604.285 479.979 604.539 480.439 604.908 480.802 605.362 481.68 606.882 481.319 608.816 479.952 609.918 478.938 610.536 477.763 610.838 476.576 610.788L471.585 610.788ZM473.905 603.643 476.369 603.643C476.86 603.672 477.345 603.525 477.736 603.228 478.063 602.918 478.24 602.479 478.213 602.027 478.24 601.59 478.055 601.166 477.715 600.888 477.328 600.596 476.852 600.451 476.369 600.474L473.863 600.474ZM473.905 608.966 476.576 608.966C478.005 608.966 478.648 608.406 478.648 607.247 478.648 606.087 477.902 605.486 476.411 605.486L473.842 605.486Z" fill="#CCC6B8" transform="matrix(1 0 0 1.00033 -17.3895 -173.261)"/><path d="M485.172 610.83 482.748 610.83 482.748 598.568 485.172 598.568Z" fill="#CCC6B8" transform="matrix(1 0 0 1.00033 -17.3895 -173.261)"/><path d="M494.596 610.83 489.666 601.447 489.666 610.83 487.388 610.83 487.388 598.568 490.536 598.568 495.445 607.951 495.445 598.568 497.744 598.568 497.744 610.871Z" fill="#CCC6B8" transform="matrix(1 0 0 1.00033 -17.3895 -173.261)"/><path d="M507.271 598.568 509.715 598.568 514.313 610.871 511.683 610.871 510.813 608.386 506.028 608.386 505.158 610.871 502.694 610.871ZM506.733 606.397 510.129 606.397 508.431 601.551Z" fill="#CCC6B8" transform="matrix(1 0 0 1.00033 -17.3895 -173.261)"/><path d="M515.411 598.568 520.195 598.568C520.63 598.546 521.065 598.546 521.5 598.568 521.912 598.63 522.316 598.742 522.701 598.9 523.08 599.026 523.432 599.223 523.737 599.48 524.025 599.734 524.257 600.045 524.42 600.391 524.596 600.803 524.688 601.246 524.69 601.696 524.688 602.236 524.536 602.767 524.255 603.228 524.019 603.653 523.685 604.016 523.281 604.285 523.807 604.533 524.269 604.902 524.628 605.362 524.986 605.892 525.16 606.526 525.125 607.164 525.201 608.251 524.696 609.299 523.799 609.918 522.776 610.536 521.595 610.838 520.402 610.788L515.411 610.788ZM517.855 603.643 520.361 603.643C520.846 603.682 521.328 603.533 521.707 603.228 522.043 602.924 522.219 602.479 522.184 602.027 522.206 601.594 522.03 601.176 521.707 600.888 521.32 600.596 520.844 600.451 520.361 600.474L517.793 600.474ZM517.855 608.966 520.527 608.966C521.935 608.966 522.598 608.406 522.598 607.247 522.598 606.087 521.873 605.486 520.382 605.486L517.793 605.486Z" fill="#CCC6B8" transform="matrix(1 0 0 1.00033 -17.3895 -173.261)"/><path d="M530.344 598.568C531.088 598.562 531.829 598.624 532.56 598.755 533.206 598.86 533.834 599.055 534.424 599.335 535.621 599.879 536.504 600.94 536.827 602.214 537.297 603.852 537.297 605.588 536.827 607.226 536.64 607.876 536.323 608.483 535.895 609.007 535.489 609.473 534.987 609.848 534.424 610.105 533.838 610.401 533.208 610.604 532.56 610.705 531.827 610.817 531.085 610.873 530.344 610.871L526.699 610.871 526.699 598.568ZM534.486 602.876C534.362 602.421 534.145 601.998 533.844 601.634 533.569 601.313 533.221 601.064 532.829 600.909 532.454 600.735 532.057 600.617 531.649 600.557 531.208 600.521 530.764 600.521 530.323 600.557L529.205 600.557 529.205 608.924 530.22 608.924C530.775 608.935 531.33 608.885 531.877 608.779 532.363 608.669 532.827 608.473 533.244 608.199 533.73 607.897 534.095 607.437 534.279 606.894 534.542 606.186 534.662 605.432 534.631 604.678 534.637 604.053 534.546 603.431 534.362 602.835Z" fill="#CCC6B8" transform="matrix(1 0 0 1.00033 -17.3895 -173.261)"/><path d="M541.135 598.568 541.135 605.693C541.075 606.596 541.261 607.497 541.673 608.303 542.868 609.421 544.724 609.421 545.919 608.303 546.331 607.491 546.516 606.582 546.458 605.672L546.458 598.568 548.86 598.568 548.86 605.672C548.993 607.149 548.581 608.622 547.7 609.815 545.345 611.445 542.226 611.445 539.871 609.815 538.977 608.63 538.554 607.151 538.691 605.672L538.691 598.568Z" fill="#CCC6B8" transform="matrix(1 0 0 1.00033 -17.3895 -173.261)"/><path d="M553.334 608.924 559.32 608.924 559.32 610.892 550.931 610.892 550.931 598.568 553.355 598.568Z" fill="#CCC6B8" transform="matrix(1 0 0 1.00033 -17.3895 -173.261)"/><path d="M564.083 598.568 566.527 598.568 571.125 610.871 568.495 610.871 567.625 608.386 562.841 608.386 561.971 610.871 559.506 610.871ZM563.545 606.397 566.921 606.397 565.222 601.551Z" fill="#CCC6B8" transform="matrix(1 0 0 1.00033 -17.3895 -173.261)"/><path d="M581.336 600.432 574.729 608.717 581.523 608.717 581.523 610.788 571.643 610.788 571.643 608.924 578.292 600.639 572.078 600.639 572.078 598.568 581.191 598.568Z" fill="#CCC6B8" transform="matrix(1 0 0 1.00033 -17.3895 -173.261)"/><path d="M585.458 610.83 583.034 610.83 583.034 598.568 585.458 598.568Z" fill="#CCC6B8" transform="matrix(1 0 0 1.00033 -17.3895 -173.261)"/><path d="M596.497 600.432 589.869 608.717 596.684 608.717 596.684 610.788 586.845 610.788 586.845 608.924 593.494 600.639 587.384 600.639 587.384 598.568 596.497 598.568Z" fill="#CCC6B8" transform="matrix(1 0 0 1.00033 -17.3895 -173.261)"/><path d="M607.06 606.025 604.492 606.025 604.492 610.83 602.069 610.83 602.069 598.568 606.107 598.568C607.592 598.454 609.08 598.763 610.395 599.459 611.296 600.122 611.789 601.203 611.7 602.317 611.745 603.763 610.848 605.07 609.483 605.548L612.217 610.871 609.525 610.871ZM604.492 600.432 604.492 604.14 606.563 604.14C608.365 604.14 609.276 603.518 609.276 602.276 609.276 601.033 608.323 600.432 606.439 600.432Z" fill="#CCC6B8" transform="matrix(1 0 0 1.00033 -17.3895 -173.261)"/><path d="M623.422 609.297C620.972 611.639 617.112 611.639 614.661 609.297 612.478 606.604 612.478 602.752 614.661 600.06 617.12 597.738 620.964 597.738 623.422 600.06 625.605 602.752 625.605 606.604 623.422 609.297ZM616.525 607.951C617.151 608.696 618.079 609.121 619.052 609.111 620.019 609.121 620.941 608.694 621.558 607.951 622.269 607.012 622.621 605.853 622.552 604.678 622.625 603.51 622.271 602.354 621.558 601.427 620.949 600.666 620.026 600.231 619.052 600.246 618.073 600.231 617.143 600.666 616.525 601.427 615.813 602.354 615.459 603.51 615.531 604.678 615.45 605.849 615.788 607.006 616.484 607.951Z" fill="#CCC6B8" transform="matrix(1 0 0 1.00033 -17.3895 -173.261)"/><path d="M627.358 598.568 630.216 603.725 633.136 598.568 635.849 598.568 631.313 606.128 631.313 610.871 628.89 610.871 628.89 606.087 624.52 598.568Z" fill="#CCC6B8" transform="matrix(1 0 0 1.00033 -17.3895 -173.261)"/><path d="M638.625 598.568 641.069 598.568 645.667 610.871 643.036 610.871 642.166 608.386 637.382 608.386 636.512 610.871 634.047 610.871ZM638.086 606.397 641.483 606.397 639.785 601.551Z" fill="#CCC6B8" transform="matrix(1 0 0 1.00033 -17.3895 -173.261)"/><path d="M649.208 608.924 655.194 608.924 655.194 610.892 646.764 610.892 646.764 598.568 649.208 598.568Z" fill="#CCC6B8" transform="matrix(1 0 0 1.00033 -17.3895 -173.261)"/><path d="M665.136 606.025 662.567 606.025 662.567 610.83 660.123 610.83 660.123 598.568 664.162 598.568C665.654 598.456 667.147 598.765 668.47 599.459 669.371 600.122 669.864 601.203 669.775 602.317 669.817 603.767 668.911 605.078 667.538 605.548L670.272 610.871 667.58 610.871ZM662.567 600.432 662.567 604.14 664.639 604.14C666.461 604.14 667.352 603.518 667.352 602.276 667.352 601.033 666.42 600.432 664.514 600.432Z" fill="#CCC6B8" transform="matrix(1 0 0 1.00033 -17.3895 -173.261)"/><path d="M671.618 598.568 680.587 598.568 680.587 600.536 674.042 600.536 674.042 603.601 680.255 603.601 680.255 605.569 674.042 605.569 674.042 608.924 680.587 608.924 680.587 610.892 671.618 610.892Z" fill="#CCC6B8" transform="matrix(1 0 0 1.00033 -17.3895 -173.261)"/><path d="M685.371 605.445C682.906 604.927 681.684 603.746 681.684 601.882 681.66 601.118 681.935 600.374 682.451 599.811 682.956 599.254 683.598 598.84 684.315 598.61 685.048 598.363 685.818 598.245 686.593 598.258 687.792 598.227 688.967 598.597 689.928 599.314 690.833 599.964 691.384 600.998 691.419 602.11L689.078 602.11C689.039 601.509 688.716 600.963 688.209 600.639 687.691 600.325 687.094 600.165 686.49 600.184 685.907 600.169 685.332 600.298 684.812 600.557 684.375 600.778 684.101 601.228 684.108 601.716 684.108 602.524 684.688 603.021 685.827 603.228L687.442 603.518C687.954 603.622 688.457 603.752 688.954 603.912 689.42 604.071 689.865 604.287 690.28 604.554 690.708 604.817 691.058 605.188 691.295 605.631 691.537 606.128 691.657 606.673 691.647 607.226 691.678 608.35 691.11 609.407 690.155 610.001 689.114 610.674 687.896 611.02 686.655 610.995 685.338 611.051 684.043 610.649 682.989 609.856 682.08 609.108 681.512 608.025 681.415 606.853L683.756 606.853C683.903 608.299 685.191 609.351 686.637 609.206 686.672 609.202 686.705 609.198 686.738 609.193 687.335 609.208 687.927 609.073 688.457 608.8 688.944 608.553 689.238 608.04 689.203 607.495 689.221 607.039 688.991 606.611 688.602 606.377 688.084 606.085 687.515 605.894 686.924 605.817Z" fill="#CCC6B8" transform="matrix(1 0 0 1.00033 -17.3895 -173.261)"/><path d="M693.138 598.568 702.127 598.568 702.127 600.536 695.582 600.536 695.582 603.601 701.795 603.601 701.795 605.569 695.582 605.569 695.582 608.924 702.127 608.924 702.127 610.892 693.159 610.892Z" fill="#CCC6B8" transform="matrix(1 0 0 1.00033 -17.3895 -173.261)"/><path d="M708.61 606.025 706.041 606.025 706.041 610.83 703.618 610.83 703.618 598.568 707.657 598.568C709.142 598.456 710.627 598.765 711.944 599.459 712.845 600.122 713.338 601.203 713.249 602.317 713.295 603.763 712.398 605.07 711.033 605.548L713.767 610.871 711.054 610.871ZM706.041 600.432 706.041 604.14 708.113 604.14C709.914 604.14 710.826 603.518 710.826 602.276 710.826 601.033 709.873 600.432 707.988 600.432Z" fill="#CCC6B8" transform="matrix(1 0 0 1.00033 -17.3895 -173.261)"/><path d="M716.169 598.568 719.11 607.847 721.969 598.568 724.537 598.568 720.291 610.871 717.826 610.871 713.539 598.568Z" fill="#CCC6B8" transform="matrix(1 0 0 1.00033 -17.3895 -173.261)"/><path d="M725.552 598.568 734.52 598.568 734.52 600.536 727.996 600.536 727.996 603.601 734.209 603.601 734.209 605.569 727.996 605.569 727.996 608.924 734.52 608.924 734.52 610.892 725.552 610.892Z" fill="#CCC6B8" transform="matrix(1 0 0 1.00033 -17.3895 -173.261)"/><path d="M743.55 598.568C744.3 598.562 745.05 598.624 745.787 598.755 746.431 598.867 747.059 599.061 747.651 599.335 748.848 599.879 749.731 600.94 750.054 602.214 750.495 603.856 750.495 605.583 750.054 607.226 749.867 607.876 749.55 608.483 749.122 609.007 748.716 609.473 748.215 609.848 747.651 610.105 747.063 610.395 746.433 610.598 745.787 610.705 745.048 610.819 744.3 610.873 743.55 610.871L739.905 610.871 739.905 598.568ZM747.693 602.876C747.562 602.421 747.336 601.996 747.03 601.634 746.763 601.315 746.421 601.064 746.036 600.909 745.661 600.735 745.263 600.617 744.855 600.557 744.408 600.521 743.956 600.521 743.509 600.557L742.39 600.557 742.39 608.924 743.509 608.924C744.064 608.937 744.621 608.887 745.166 608.779 745.661 608.671 746.131 608.475 746.553 608.199 747.04 607.897 747.407 607.437 747.589 606.894 747.84 606.184 747.96 605.432 747.941 604.678 747.954 604.055 747.871 603.433 747.693 602.835Z" fill="#CCC6B8" transform="matrix(1 0 0 1.00033 -17.3895 -173.261)"/><path d="M752.063 598.568 761.031 598.568 761.031 600.536 754.507 600.536 754.507 603.601 760.72 603.601 760.72 605.569 754.507 605.569 754.507 608.924 761.031 608.924 761.031 610.892 752.063 610.892Z" fill="#CCC6B8" transform="matrix(1 0 0 1.00033 -17.3895 -173.261)"/><path d="M763.993 598.568 766.913 607.847 769.771 598.568 772.36 598.568 768.114 610.871 765.629 610.871 761.362 598.568Z" fill="#CCC6B8" transform="matrix(1 0 0 1.00033 -17.3895 -173.261)"/><path d="M773.375 598.568 782.323 598.568 782.323 600.536 775.798 600.536 775.798 603.601 782.012 603.601 782.012 605.569 775.798 605.569 775.798 608.924 782.323 608.924 782.323 610.892 773.375 610.892Z" fill="#CCC6B8" transform="matrix(1 0 0 1.00033 -17.3895 -173.261)"/><path d="M786.279 608.924 792.264 608.924 792.264 610.892 783.855 610.892 783.855 598.568 786.279 598.568Z" fill="#CCC6B8" transform="matrix(1 0 0 1.00033 -17.3895 -173.261)"/><path d="M802.537 609.297C800.116 611.693 796.218 611.693 793.797 609.297 791.589 606.613 791.589 602.744 793.797 600.06 796.249 597.74 800.085 597.74 802.537 600.06 804.745 602.744 804.745 606.613 802.537 609.297ZM795.661 607.951C796.841 609.334 798.919 609.5 800.304 608.319 800.437 608.208 800.559 608.083 800.673 607.951 801.39 607.015 801.75 605.855 801.688 604.678 801.754 603.508 801.394 602.352 800.673 601.427 799.528 600.043 797.479 599.848 796.096 600.992 795.936 601.124 795.791 601.269 795.661 601.427 794.94 602.352 794.58 603.508 794.646 604.678 794.584 605.855 794.944 607.015 795.661 607.951Z" fill="#CCC6B8" transform="matrix(1 0 0 1.00033 -17.3895 -173.261)"/><path d="M810.118 598.568C810.698 598.568 811.215 598.568 811.671 598.568 812.158 598.62 812.636 598.726 813.1 598.879 813.56 599.02 813.989 599.243 814.364 599.542 814.73 599.873 815.014 600.283 815.192 600.743 815.428 601.327 815.542 601.955 815.523 602.586 815.542 603.253 815.399 603.914 815.109 604.513 814.836 605.024 814.419 605.44 813.908 605.714 813.38 605.991 812.814 606.192 812.23 606.314 811.547 606.428 810.853 606.484 810.159 606.48L808.316 606.48 808.316 610.809 805.892 610.809 805.892 598.568ZM808.336 600.474 808.336 604.616 810.408 604.616C811.091 604.658 811.773 604.506 812.375 604.181 812.887 603.837 813.166 603.241 813.1 602.628 813.108 602.28 813.044 601.934 812.914 601.613 812.829 601.364 812.678 601.143 812.479 600.971 812.272 600.818 812.042 600.698 811.795 600.619 811.547 600.542 811.29 600.494 811.029 600.474L810.221 600.474Z" fill="#CCC6B8" transform="matrix(1 0 0 1.00033 -17.3895 -173.261)"/><path d="M822.048 610.83 819.003 601.592 819.003 610.83 816.745 610.83 816.745 598.568 820.287 598.568 823.27 608.158 826.169 598.568 829.732 598.568 829.732 610.871 827.474 610.871 827.474 601.634 824.45 610.871Z" fill="#CCC6B8" transform="matrix(1 0 0 1.00033 -17.3895 -173.261)"/><path d="M831.948 598.568 840.895 598.568 840.895 600.536 834.371 600.536 834.371 603.601 840.585 603.601 840.585 605.569 834.371 605.569 834.371 608.924 840.895 608.924 840.895 610.892 831.948 610.892Z" fill="#CCC6B8" transform="matrix(1 0 0 1.00033 -17.3895 -173.261)"/><path d="M849.636 610.83 844.706 601.447 844.706 610.83 842.428 610.83 842.428 598.568 845.576 598.568 850.485 607.951 850.485 598.568 852.784 598.568 852.784 610.871Z" fill="#CCC6B8" transform="matrix(1 0 0 1.00033 -17.3895 -173.261)"/><path d="M857.755 600.494 853.985 600.494 853.985 598.568 863.989 598.568 863.989 600.536 860.178 600.536 860.178 610.892 857.755 610.892Z" fill="#CCC6B8" transform="matrix(1 0 0 1.00033 -17.3895 -173.261)"/><path d="M872.501 598.568 874.945 598.568 879.523 610.871 876.913 610.871 876.043 608.386 871.259 608.386 870.389 610.871 867.82 610.871ZM871.942 606.397 875.339 606.397 873.64 601.551Z" fill="#CCC6B8" transform="matrix(1 0 0 1.00033 -17.3895 -173.261)"/><path d="M882.505 598.568 882.505 605.693C882.441 606.598 882.633 607.503 883.064 608.303 884.241 609.367 886.03 609.367 887.207 608.303 887.629 607.493 887.816 606.582 887.745 605.672L887.745 598.568 890.168 598.568 890.168 605.672C890.311 607.149 889.897 608.626 889.009 609.815 886.654 611.445 883.534 611.445 881.18 609.815 880.285 608.63 879.862 607.151 879.999 605.672L879.999 598.568Z" fill="#CCC6B8" transform="matrix(1 0 0 1.00033 -17.3895 -173.261)"/><path d="M895.056 600.494 891.266 600.494 891.266 598.568 901.27 598.568 901.27 600.536 897.48 600.536 897.48 610.892 895.056 610.892Z" fill="#CCC6B8" transform="matrix(1 0 0 1.00033 -17.3895 -173.261)"/><path d="M912.827 598.568 912.827 610.871 910.404 610.871 910.404 605.569 904.894 605.569 904.894 610.871 902.471 610.871 902.471 598.568 904.894 598.568 904.894 603.601 910.404 603.601 910.404 598.568Z" fill="#CCC6B8" transform="matrix(1 0 0 1.00033 -17.3895 -173.261)"/><path d="M924.964 609.297C922.514 611.639 918.653 611.639 916.203 609.297 913.995 606.613 913.995 602.744 916.203 600.06 918.661 597.738 922.506 597.738 924.964 600.06 927.147 602.752 927.147 606.604 924.964 609.297ZM918.067 607.951C919.248 609.334 921.325 609.5 922.711 608.319 922.843 608.208 922.965 608.083 923.079 607.951 923.804 607.021 924.165 605.857 924.094 604.678 924.171 603.506 923.808 602.348 923.079 601.427 921.936 600.043 919.886 599.848 918.502 600.992 918.343 601.124 918.198 601.269 918.067 601.427 917.355 602.354 917 603.51 917.073 604.678 917.005 605.853 917.357 607.012 918.067 607.951Z" fill="#CCC6B8" transform="matrix(1 0 0 1.00033 -17.3895 -173.261)"/><path d="M933.332 606.025 930.743 606.025 930.743 610.83 928.319 610.83 928.319 598.568 932.462 598.568C933.953 598.456 935.446 598.765 936.77 599.459 937.656 600.132 938.139 601.209 938.054 602.317 938.099 603.763 937.203 605.07 935.838 605.548L938.572 610.871 935.879 610.871ZM930.743 600.432 930.743 604.14 932.814 604.14C934.616 604.14 935.527 603.518 935.527 602.276 935.527 601.033 934.574 600.432 932.69 600.432Z" fill="#CCC6B8" transform="matrix(1 0 0 1.00033 -17.3895 -173.261)"/><path d="M942.238 610.83 939.814 610.83 939.814 598.568 942.238 598.568Z" fill="#CCC6B8" transform="matrix(1 0 0 1.00033 -17.3895 -173.261)"/><path d="M947.208 600.494 943.418 600.494 943.418 598.568 953.443 598.568 953.443 600.536 949.632 600.536 949.632 610.892 947.208 610.892Z" fill="#CCC6B8" transform="matrix(1 0 0 1.00033 -17.3895 -173.261)"/><path d="M956.57 598.568 959.449 603.725 962.369 598.568 965.165 598.568 960.65 606.128 960.65 610.871 958.206 610.871 958.206 606.087 953.753 598.568Z" fill="#CCC6B8" transform="matrix(1 0 0 1.00033 -17.3895 -173.261)"/></g></svg>